<svg width="400" height="400" viewBox="0 0 400 400" fill="none" xmlns="http://www.w3.org/2000/svg">
  <circle cx="200" cy="200" r="200" fill="url(#bg)"/>
  <defs>
    <radialGradient id="bg" cx="0.5" cy="0.5" r="0.7">
      <stop offset="0%" stop-color="#FFB300"/>
      <stop offset="100%" stop-color="#FF7C00"/>
    </radialGradient>
  </defs>
  <path d="M120 120 Q200 60 280 120 Q320 160 320 200 Q320 240 280 280 Q200 340 120 280 Q80 240 80 200 Q80 160 120 120 Z" fill="#22B573"/>
  <path d="M120 120 Q200 60 280 120 Q320 160 320 200 Q320 240 280 280 Q200 340 120 280 Q80 240 80 200 Q80 160 120 120 Z" fill="url(#wave)" fill-opacity="0.5"/>
  <defs>
    <linearGradient id="wave" x1="80" y1="200" x2="320" y2="200" gradientUnits="userSpaceOnUse">
      <stop stop-color="#0097A7"/>
      <stop offset="1" stop-color="#22D3EE"/>
    </linearGradient>
  </defs>
  <path d="M100 300 Q200 350 300 300" stroke="#0097A7" stroke-width="10" fill="none"/>
  <text x="200" y="230" text-anchor="middle" font-family="Inter, Arial, sans-serif" font-size="60" font-weight="bold" fill="#fff" letter-spacing="2">SEMHYS</text>
  <path d="M120 120 Q200 60 280 120" stroke="#FF7C00" stroke-width="18" fill="none"/>
  <path d="M120 120 Q200 60 280 120 Q320 160 320 200" stroke="#FF7C00" stroke-width="18" fill="none"/>
</svg>
